PathFileType	4	(X/Y/Z)	C:/Users/beibeiliu/ov580/test_trc/User3\sequence.10_training_dense_left.trc
DataRate	CameraRate	NumFrames	NumMarkers	Units	OrigDataRate	OrigDataStartFrame	OrigNumFrames
120	120	13	19	mm	120	1	155
Frame#	Time	ThumbCMC			ThumbMCP			ThumbIP			ThumbTip			IndexMCP			IndexPIP			IndexTip			MiddleMCP			MiddlePIP			MiddleTip			RingMCP			RingPIP			RingTip			PinkyMCP			PinkyPIP			PinkyTip			BackHand1			BackHand2			BackHand3	
		X0	Y0	Z0	X1	Y1	Z1	X2	Y2	Z2	X3	Y3	Z3	X4	Y4	Z4	X5	Y5	Z5	X6	Y6	Z6	X7	Y7	Z7	X8	Y8	Z8	X9	Y9	Z9	X10	Y10	Z10	X11	Y11	Z11	X12	Y12	Z12	X13	Y13	Z13	X14	Y14	Z14	X15	Y15	Z15	X16	Y16	Z16	X17	Y17	Z17	X18	Y18	Z18	
0	0	-97.4067	6.73052	3.23453	-78.4158	-0.41638	-18.9676	-60.213	-5.64377	-43.646	-53.8352	-15.1736	-68.8104	-120.403	20.0294	-73.3924	-112.229	15.9454	-100.147	-106.33	3.15044	-129.003	-144.466	18.415	-79.0881	-144.72	12.5702	-108.985	-142.812	-6.1592	-137.231	-161.969	8.46411	-73.1981	-165.722	3.03642	-96.2146	-167.023	-13.8009	-120.181	-182.292	-5.29273	-56.8013	-186.211	-12.5213	-75.9426	-183.785	-25.9948	-99.0002	-162.492	19.6237	-20.925	-162.658	17.8563	14.1048	-131.166	26.1943	-6.40866	
1	0.00833333	-99.4276	6.77847	0.117043	-78.067	1.58672	-20.9083	-65.8083	-5.39981	-45.0717	-54.8952	-14.6112	-68.7211	-121.352	20.9187	-75.7554	-114.149	16.2662	-105.294	-108.626	3.00148	-130.498	-144.306	19.2813	-82.5614	-144.05	14.3565	-107.674	-143.031	-5.7733	-138.122	-166.544	8.48762	-71.9588	-164.675	3.12878	-97.52	-165.866	-15.7664	-125.589	-179.818	-4.6738	-54.0891	-186.839	-14.0121	-81.7489	-187.463	-25.6597	-99.5276	-164.79	18.1165	-18.1747	-162.712	19.7097	10.4035	-130.895	26.1551	-9.1786	
2	0.0166667	-98.6439	6.04239	1.71131	-79.113	1.13328	-18.6761	-61.1312	-4.82946	-48.1578	-55.3808	-13.3708	-64.7505	-114.853	21.4724	-79.2886	-113.082	16.8553	-103.245	-103.746	6.56813	-127.174	-145.235	19.3804	-79.5339	-142.869	13.778	-109.039	-138.64	-3.53596	-137.506	-160.055	9.76366	-70.7405	-163.406	1.25364	-101.943	-165.138	-15.4211	-124.89	-180.36	-3.72101	-55.9197	-185.771	-13.2058	-80.1453	-183.792	-26.2247	-99.2863	-164.446	18.7828	-19.1794	-160.783	18.2572	9.44584	-131.135	25.3597	-6.67702	
3	0.025	-94.0663	7.6415	-2.57966	-78.1288	1.25739	-21.6874	-61.6738	-4.81297	-46.3337	-52.6678	-13.0202	-63.3529	-115.904	20.9724	-78.6777	-107.112	17.3019	-106.266	-107.69	6.72218	-126.346	-140.868	19.804	-78.3279	-141.069	13.3491	-111.018	-139.133	-4.0524	-137.966	-157.954	10.0695	-73.6278	-162.181	1.8317	-100.825	-161.388	-11.3129	-121.522	-173.942	-3.06208	-55.065	-180.39	-9.50403	-80.6769	-183.499	-23.3239	-100.919	-160.985	18.5882	-22.4057	-163.111	18.1817	8.39959	-128.282	26.4554	-9.6814	
4	0.0333333	-97.2252	6.39853	1.17065	-75.5192	2.12932	-22.9811	-57.5742	-3.88485	-44.3371	-48.8992	-12.3055	-65.1126	-111.937	22.6712	-74.9845	-107.547	19.3547	-101.371	-101.497	9.01729	-126.05	-137.595	22.1431	-83.8155	-136.551	13.4689	-112.86	-135.105	-1.0857	-137.058	-160.976	8.53261	-72.4737	-159.667	2.41234	-102.248	-161.327	-14.5403	-124.474	-178.104	-3.84905	-57.2399	-177.823	-8.73034	-79.1709	-182.135	-22.9478	-101.032	-160.779	20.6798	-21.4745	-156.577	20.8008	6.92938	-127.606	25.9075	-9.57818	
5	0.0416667	-96.1064	7.85501	-3.05995	-76.1574	2.98598	-22.2806	-59.4478	-2.92843	-48.1063	-48.1207	-11.7885	-66.316	-110.826	23.0843	-73.9787	-109.662	17.6634	-105.428	-101.812	8.60524	-126.082	-140.904	20.6983	-82.8205	-137.022	15.3486	-110.564	-137.446	-2.59195	-137.542	-161.169	8.99744	-72.6407	-162.244	1.64023	-101.582	-162.83	-12.8556	-121.928	-175.737	-1.83305	-57.0564	-178.066	-8.0193	-77.4605	-181.32	-24.4944	-99.0572	-156.829	21.4992	-18.3302	-158.197	20.0845	8.87623	-123.906	27.2282	-8.54373	
6	0.05	-94.2421	8.62769	-2.9366	-74.0377	2.99733	-23.2313	-60.9092	-4.99283	-44.0106	-51.0894	-12.1045	-65.2011	-115.481	22.1061	-79.5524	-107.201	18.548	-101.831	-104.849	7.27919	-126.772	-142.532	19.9392	-83.6725	-137.6	15.3607	-108.762	-136.207	-3.22998	-140.037	-157.155	9.85683	-70.9551	-161.725	2.50306	-99.2391	-159.793	-13.7082	-126.175	-178.463	-3.49345	-57.282	-180.661	-11.7978	-82.5973	-181.447	-25.6302	-100.966	-156.002	19.1265	-18.5663	-160.121	19.3601	10.298	-128.005	27.8186	-7.38396	
7	0.0583333	-95.2575	8.10318	1.86883	-75.4054	1.94724	-20.0195	-57.3319	-3.1361	-47.0973	-47.7225	-11.8616	-64.969	-115.026	22.3078	-78.2284	-106.793	16.5677	-106.367	-106.197	6.89899	-127.202	-141.245	19.4536	-83.4621	-139.127	13.7608	-109.467	-133.096	-5.41632	-141.95	-157.666	9.53497	-72.2917	-164.448	0.798748	-99.4392	-162.816	-13.8728	-122.48	-179.018	-3.31601	-59.7375	-180.444	-10.8474	-79.3726	-180.502	-27.9792	-103.035	-162.003	17.7322	-18.3289	-160.733	18.746	8.30001	-125.977	28.6919	-8.48226	
8	0.0666667	-95.6806	6.68606	-0.845033	-76.5488	1.18578	-22.7419	-62.0665	-4.72156	-45.6093	-51.1361	-12.5711	-68.6268	-114.935	21.4923	-75.6272	-108.083	16.2055	-106.967	-100.475	4.17875	-130.425	-140.713	19.0676	-79.978	-141.805	11.2006	-112.491	-136.078	-4.96847	-139.456	-159.817	8.45566	-73.7136	-163.931	0.816168	-99.0256	-159.535	-14.7063	-124.874	-178.761	-4.875	-55.0667	-180.608	-11.2992	-78.0976	-182.529	-27.1694	-101.322	-159.489	17.2761	-20.1657	-161.146	17.1103	11.3086	-127.426	25.2159	-7.4782	
9	0.075	-97.6249	5.38859	0.92475	-72.4671	0.922317	-21.3445	-57.1677	-4.73302	-43.0873	-52.9804	-14.9708	-64.467	-113.429	20.1909	-76.7175	-110.629	16.2268	-102.403	-104.449	4.77619	-128.352	-139.268	18.624	-82.2665	-137.833	12.4062	-110.574	-135.629	-4.83868	-138.062	-156.665	8.64908	-74.9002	-164.849	0.70982	-97.3531	-161.415	-15.4793	-122.771	-174.137	-4.55079	-54.6064	-181.525	-13.7185	-80.1947	-180.878	-27.4219	-99.9195	-161.97	16.7591	-19.1941	-160.941	17.8563	7.45474	-126.171	25.1055	-6.61283	
10	0.0833333	-95.6296	5.26704	-0.254034	-74.9027	-0.577524	-20.2692	-59.0832	-7.12628	-44.6839	-50.4993	-15.8019	-66.6742	-115.9	18.1032	-77.1341	-107.98	14.3104	-102.4	-105.1	1.26685	-129.136	-140.914	17.1362	-83.0231	-138.927	10.4236	-108.611	-139.511	-8.3054	-136.448	-162.757	5.22756	-71.6142	-164.472	-0.876553	-97.1933	-160.631	-18.5945	-123.332	-174.543	-5.63054	-54.2779	-181.515	-13.7945	-79.6796	-179.964	-30.1823	-98.3615	-161.828	15.4961	-18.0214	-160.218	15.437	7.23512	-128.56	24.2742	-6.75353	
11	0.0916667	-99.1355	0.563595	3.30409	-73.1707	-3.31386	-18.1045	-59.2274	-9.56907	-43.5785	-56.7558	-19.0267	-65.2874	-114.885	18.1289	-75.8265	-108.742	13.0657	-103.209	-106.511	2.32348	-124.416	-141.054	17.2806	-78.108	-141.465	8.82365	-109.494	-136.459	-17.3755	-135.111	-161.201	5.95598	-68.1729	-160.938	-0.916873	-96.411	-160.1	-23.6956	-116.934	-174.222	-4.60196	-58.2185	-179.056	-13.6639	-77.5666	-176.731	-37.4033	-96.7579	-162.128	15.8326	-18.1401	-162.799	13.8667	11.1163	-125.529	21.3396	-6.74655	
12	0.1	-100.329	0.711427	0.156328	-81.1253	-7.75355	-20.7138	-63.896	-14.6875	-46.1742	-61.7422	-23.4701	-69.4073	-115.467	20.8138	-74.4335	-108.827	16.6792	-100.69	-106.956	4.60798	-121.822	-139.243	18.6918	-78.3661	-138.922	3.77055	-108.439	-132.54	-28.1767	-118.747	-162.241	7.13605	-68.4946	-156.637	-6.29022	-97.8777	-149.644	-36.3693	-103.346	-176.505	-6.34251	-53.0526	-177.564	-16.4666	-77.4269	-163.276	-44.0005	-87.9484	-158.06	14.376	-18.2326	-160.64	11.9906	14.7401	-128.247	20.1128	-2.08613	
